<svg width="52" height="15" viewBox="0 0 52 15" fill="none" xmlns="http://www.w3.org/2000/svg">
<path d="M1.96795 4.43599C2.03195 4.41999 2.07995 4.41199 2.11195 4.41199C2.35195 4.41199 2.57195 4.67199 2.77195 5.19199C2.89195 5.49599 2.95195 5.82399 2.95195 6.17599C2.95195 6.28799 2.93995 6.36399 2.91595 6.40399C2.86795 6.45199 2.79995 6.47599 2.71195 6.47599C2.53595 6.47599 2.39595 6.29199 2.29195 5.92399C2.26795 5.84399 2.25595 5.77999 2.25595 5.73199C2.25595 5.68399 2.27595 5.61999 2.31595 5.53999C2.37195 5.45199 2.39995 5.37199 2.39995 5.29999C2.39995 5.22799 2.35995 5.19199 2.27995 5.19199C2.21595 5.19199 2.09995 5.24399 1.93195 5.34799C1.76395 5.44399 1.67995 5.50799 1.67995 5.53999C1.67995 5.57199 1.62395 5.67999 1.51195 5.86399C1.44795 5.96799 1.39195 6.07599 1.34395 6.18799C1.29595 6.29999 1.25995 6.39199 1.23595 6.46399C1.21195 6.52799 1.17595 6.64399 1.12795 6.81199C1.07995 6.97999 1.04395 7.10799 1.01995 7.19599C0.851953 7.74799 0.755953 8.19999 0.731953 8.55199C0.723953 8.64799 0.719953 8.75199 0.719953 8.86399C0.719953 8.97599 0.759953 9.06799 0.839953 9.13999C0.919953 9.21999 1.00795 9.25999 1.10395 9.25999C1.23995 9.25999 1.53995 9.12399 2.00395 8.85199C2.60395 8.50799 3.12795 8.15599 3.57595 7.79599C3.80795 7.60399 3.93995 7.50799 3.97195 7.50799C3.97995 7.50799 3.98395 7.51999 3.98395 7.54399C3.98395 7.70399 3.94795 7.82799 3.87595 7.91599C3.79595 8.02799 3.35595 8.39999 2.55595 9.03199C2.37995 9.16799 2.19195 9.28799 1.99195 9.39199C1.79195 9.49599 1.64795 9.54799 1.55995 9.54799C1.48795 9.54799 1.39595 9.58399 1.28395 9.65599C1.16395 9.72799 1.03595 9.76399 0.899953 9.76399C0.659953 9.76399 0.475953 9.66399 0.347953 9.46399C0.283953 9.35999 0.251953 9.23199 0.251953 9.07999C0.251953 8.93599 0.255953 8.80399 0.263953 8.68399C0.287953 7.98799 0.447953 7.35199 0.743953 6.77599C0.815953 6.63999 0.899953 6.39999 0.995953 6.05599C1.07595 5.76799 1.18395 5.47999 1.31995 5.19199C1.45595 4.89599 1.57595 4.69999 1.67995 4.60399C1.75995 4.52399 1.85595 4.46799 1.96795 4.43599Z" fill="#52525B"/>
<path d="M4.75495 4.72399C4.68295 4.57199 4.61895 4.49599 4.56295 4.49599C4.52295 4.49599 4.47895 4.52399 4.43095 4.57999C4.37495 4.63599 4.34695 4.69199 4.34695 4.74799C4.34695 4.79599 4.37095 4.86799 4.41895 4.96399C4.51495 5.13999 4.60295 5.21199 4.68295 5.17999C4.77095 5.13999 4.81495 5.06799 4.81495 4.96399C4.81495 4.88399 4.79495 4.80399 4.75495 4.72399ZM4.53895 3.40399C4.61095 3.36399 4.68295 3.36399 4.75495 3.40399C4.82695 3.45199 4.90695 3.55199 4.99495 3.70399C5.05895 3.80799 5.09495 3.89599 5.10295 3.96799C5.11895 4.03199 5.12695 4.17199 5.12695 4.38799V4.63999C5.11895 5.09599 5.07895 5.42399 5.00695 5.62399C4.94295 5.81599 4.78695 6.04799 4.53895 6.31999L4.17895 6.72799C4.17895 6.76799 4.13095 6.99999 4.03495 7.42399C3.93895 7.83999 3.87495 8.17599 3.84295 8.43199C3.83495 8.47999 3.83095 8.54399 3.83095 8.62399C3.83095 8.71199 3.85095 8.75599 3.89095 8.75599C3.93895 8.75599 4.05895 8.65999 4.25095 8.46799C4.42695 8.28399 4.51495 8.14799 4.51495 8.05999C4.51495 8.05199 4.51095 8.03599 4.50295 8.01199C4.50295 7.97999 4.50295 7.95599 4.50295 7.93999C4.50295 7.93199 4.49895 7.91599 4.49095 7.89199C4.49095 7.86799 4.49095 7.85199 4.49095 7.84399C4.49095 7.73999 4.54295 7.59599 4.64695 7.41199C4.75095 7.21999 4.80295 7.07999 4.80295 6.99199C4.80295 6.86399 4.85095 6.73599 4.94695 6.60799C5.05095 6.47999 5.14695 6.41599 5.23495 6.41599C5.25895 6.41599 5.27495 6.41999 5.28295 6.42799C5.39495 6.47599 5.45095 6.71199 5.45095 7.13599C5.45095 7.32799 5.44695 7.48399 5.43895 7.60399C5.43095 7.74799 5.42695 7.91999 5.42695 8.11999C5.42695 8.35199 5.45495 8.53999 5.51095 8.68399C5.58295 8.86799 5.65495 8.95999 5.72695 8.95999C5.79095 8.95999 5.91895 8.86399 6.11095 8.67199C6.31095 8.45599 6.46295 8.34799 6.56695 8.34799C6.62295 8.34799 6.67095 8.39199 6.71095 8.47999C6.72695 8.52799 6.73495 8.56799 6.73495 8.59999C6.73495 8.71999 6.58295 8.93599 6.27895 9.24799C6.01495 9.48799 5.85495 9.61599 5.79895 9.63199C5.75095 9.63199 5.71095 9.62799 5.67895 9.61999C5.54295 9.60399 5.43495 9.56399 5.35495 9.49999C5.13095 9.30799 4.99895 9.01999 4.95895 8.63599C4.93495 8.41199 4.89495 8.29999 4.83895 8.29999C4.76695 8.29999 4.68695 8.40799 4.59895 8.62399C4.49495 8.84799 4.44295 8.97599 4.44295 9.00799C4.44295 9.04799 4.35495 9.19999 4.17895 9.46399C3.94695 9.80799 3.74695 9.97999 3.57895 9.97999C3.47495 9.97999 3.39495 9.91999 3.33895 9.79999C3.29895 9.71999 3.27895 9.56799 3.27895 9.34399C3.27895 8.78399 3.36695 8.11199 3.54295 7.32799C3.59095 7.08799 3.61495 6.94799 3.61495 6.90799C3.61495 6.86799 3.60295 6.83999 3.57895 6.82399C3.55495 6.80799 3.52695 6.80799 3.49495 6.82399C3.46295 6.83999 3.43495 6.86399 3.41095 6.89599C3.37095 6.93599 3.31895 6.95599 3.25495 6.95599C3.15095 6.95599 3.07895 6.92399 3.03895 6.85999C3.01495 6.81999 3.00295 6.77999 3.00295 6.73999C3.00295 6.61199 3.12295 6.45199 3.36295 6.25999C3.53095 6.13199 3.64295 6.02399 3.69895 5.93599C3.76295 5.83999 3.81095 5.71199 3.84295 5.55199C3.88295 5.37599 3.93495 5.22799 3.99895 5.10799C4.07895 4.94799 4.10295 4.84399 4.07095 4.79599C4.05495 4.77999 4.04695 4.74799 4.04695 4.69999C4.04695 4.60399 4.07495 4.45599 4.13095 4.25599C4.23495 3.79999 4.37095 3.51599 4.53895 3.40399Z" fill="#52525B"/>
<path d="M8.30752 6.06799C8.60352 5.62799 8.80352 5.36399 8.90752 5.27599C9.01152 5.18799 9.07552 5.14399 9.09952 5.14399C9.13952 5.14399 9.24352 5.21999 9.41152 5.37199C9.69152 5.62799 9.91952 5.75599 10.0955 5.75599C10.1755 5.75599 10.2155 5.78799 10.2155 5.85199C10.2155 5.92399 10.1755 5.99599 10.0955 6.06799C10.0155 6.14799 9.91952 6.18799 9.80752 6.18799C9.67952 6.18799 9.52752 6.12399 9.35152 5.99599C9.19152 5.87599 9.07552 5.81599 9.00352 5.81599C8.93952 5.81599 8.75952 6.08799 8.46352 6.63199C8.19152 7.13599 7.93552 7.68399 7.69552 8.27599C7.45552 8.85999 7.31552 9.29199 7.27552 9.57199C7.25952 9.69199 7.21552 9.78799 7.14352 9.85999C7.07952 9.93199 7.00752 9.96799 6.92752 9.96799C6.83952 9.96799 6.76752 9.92399 6.71152 9.83599C6.67152 9.77199 6.65152 9.72399 6.65152 9.69199C6.65152 9.68399 6.67952 9.57999 6.73552 9.37999C6.79952 9.18799 6.86752 8.89199 6.93952 8.49199C7.01952 8.09199 7.06752 7.76399 7.08352 7.50799C7.09152 7.45999 7.09552 7.39599 7.09552 7.31599C7.09552 7.19599 7.07152 7.13599 7.02352 7.13599C6.99152 7.13599 6.87952 7.22399 6.68752 7.39999C6.51952 7.55999 6.40352 7.63999 6.33952 7.63999C6.31552 7.63999 6.29552 7.63599 6.27952 7.62799C6.18352 7.58799 6.13552 7.51199 6.13552 7.39999C6.13552 7.31999 6.24752 7.15599 6.47152 6.90799C6.51952 6.85999 6.70352 6.65999 7.02352 6.30799C7.16752 6.13999 7.29152 6.05599 7.39552 6.05599C7.46752 6.05599 7.53152 6.09199 7.58752 6.16399C7.65152 6.22799 7.67152 6.32399 7.64752 6.45199C7.62352 6.63599 7.67552 6.72799 7.80352 6.72799C7.82752 6.72799 7.99552 6.50799 8.30752 6.06799Z" fill="#52525B"/>
<path d="M10.1787 6.07999C10.2187 6.00799 10.2507 5.96399 10.2747 5.94799C10.2987 5.92399 10.3467 5.91599 10.4187 5.92399C10.4987 5.93199 10.5427 5.94799 10.5507 5.97199C10.5667 5.99599 10.5787 6.06799 10.5867 6.18799V6.24799C10.5867 6.42399 10.5587 6.65999 10.5027 6.95599C10.3667 7.68399 10.2987 8.17199 10.2987 8.41999C10.2987 8.55599 10.3027 8.66399 10.3107 8.74399C10.3427 9.21599 10.4067 9.45199 10.5027 9.45199C10.5987 9.45199 10.7787 9.27199 11.0427 8.91199C11.2187 8.67199 11.3387 8.52399 11.4027 8.46799C11.4667 8.40399 11.5347 8.37199 11.6067 8.37199C11.7187 8.37199 11.7827 8.38799 11.7987 8.41999C11.8067 8.42799 11.8107 8.44399 11.8107 8.46799C11.8107 8.56399 11.7707 8.71599 11.6907 8.92399C11.6187 9.12399 11.5467 9.26399 11.4747 9.34399C11.3787 9.47199 11.2987 9.61199 11.2347 9.76399C11.1787 9.90799 11.0627 10.02 10.8867 10.1C10.7347 10.172 10.6187 10.208 10.5387 10.208C10.4507 10.208 10.3467 10.144 10.2267 10.016C10.0667 9.83199 9.96267 9.68399 9.91467 9.57199C9.87467 9.45199 9.82667 9.19599 9.77067 8.80399C9.73067 8.49199 9.71067 8.24799 9.71067 8.07199C9.71067 7.95999 9.71867 7.87999 9.73467 7.83199C9.76667 7.71999 9.78267 7.60799 9.78267 7.49599V7.42399C9.78267 7.31999 9.82667 7.11599 9.91467 6.81199C10.0027 6.50799 10.0907 6.26399 10.1787 6.07999ZM11.5587 5.46799C11.5427 5.43599 11.5347 5.39199 11.5347 5.33599C11.5347 5.17599 11.6547 5.09599 11.8947 5.09599C11.9427 5.09599 12.0227 5.10399 12.1347 5.11999C12.2067 5.13599 12.2507 5.15599 12.2667 5.17999C12.2827 5.19599 12.2867 5.23999 12.2787 5.31199C12.2627 5.41599 12.2267 5.48399 12.1707 5.51599C12.1227 5.53999 12.0187 5.55199 11.8587 5.55199C11.6827 5.55199 11.5827 5.52399 11.5587 5.46799Z" fill="#52525B"/>
<path d="M12.7106 8.20399C12.7106 7.93199 12.6826 7.79599 12.6266 7.79599C12.5866 7.79599 12.4386 7.97199 12.1826 8.32399C11.9826 8.60399 11.8266 8.79199 11.7146 8.88799C11.5786 9.02399 11.5106 9.11199 11.5106 9.15199C11.5106 9.18399 11.5506 9.19999 11.6306 9.19999C11.7026 9.19999 11.7986 9.29199 11.9186 9.47599C12.0546 9.68399 12.1586 9.78799 12.2306 9.78799C12.2626 9.78799 12.3106 9.76799 12.3746 9.72799C12.5026 9.63999 12.5906 9.51199 12.6386 9.34399C12.6866 9.17599 12.7106 8.90399 12.7106 8.52799V8.20399ZM12.7946 5.69599C12.8506 5.63999 12.9066 5.61199 12.9626 5.61199C13.0186 5.61199 13.0786 5.64399 13.1426 5.70799C13.1826 5.75599 13.2066 5.87999 13.2146 6.07999C13.2306 6.27999 13.2386 6.77599 13.2386 7.56799V8.27599C13.2386 8.91599 13.2186 9.32399 13.1786 9.49999C13.1466 9.66799 13.0506 9.83999 12.8906 10.016C12.6746 10.248 12.4826 10.364 12.3146 10.364C12.2746 10.364 12.2466 10.36 12.2306 10.352C12.1426 10.336 11.9946 10.232 11.7866 10.04C11.5866 9.83999 11.4626 9.68799 11.4146 9.58399C11.3506 9.46399 11.2626 9.36399 11.1506 9.28399C11.0226 9.18799 10.9586 9.10399 10.9586 9.03199C10.9586 8.92799 11.1266 8.67999 11.4626 8.28799C11.8306 7.84799 12.0386 7.56399 12.0866 7.43599C12.4226 6.69199 12.6146 6.22799 12.6626 6.04399C12.7026 5.87599 12.7466 5.75999 12.7946 5.69599Z" fill="#52525B"/>
<path d="M15.0155 4.96399C15.0155 4.92399 15.0475 4.79199 15.1115 4.56799C15.1835 4.34399 15.2195 4.21599 15.2195 4.18399C15.2195 4.13599 15.2395 4.07199 15.2795 3.99199C15.3035 3.90399 15.3675 3.85999 15.4715 3.85999C15.5355 3.85999 15.5875 3.87999 15.6275 3.91999C15.6675 3.95999 15.6875 4.03599 15.6875 4.14799C15.6875 4.29199 15.6515 4.47199 15.5795 4.68799C15.5315 4.81599 15.5075 4.90399 15.5075 4.95199C15.5075 5.00799 15.5475 5.03599 15.6275 5.03599C15.6835 5.03599 15.7755 5.00799 15.9035 4.95199C16.0315 4.89599 16.0955 4.85599 16.0955 4.83199C16.0955 4.81599 16.1515 4.79199 16.2635 4.75999C16.3275 4.75199 16.4955 4.68799 16.7675 4.56799C16.9355 4.48799 17.0675 4.44799 17.1635 4.44799C17.2035 4.44799 17.2355 4.45199 17.2595 4.45999C17.3555 4.49199 17.4035 4.55599 17.4035 4.65199C17.4035 4.71599 17.3795 4.76799 17.3315 4.80799C17.2915 4.84799 17.1795 4.91999 16.9955 5.02399C16.7315 5.15999 16.5075 5.25999 16.3235 5.32399C16.2195 5.35599 16.1235 5.39599 16.0355 5.44399C15.9555 5.48399 15.8555 5.51999 15.7355 5.55199C15.5515 5.59999 15.4235 5.65999 15.3515 5.73199C15.2875 5.79599 15.2195 5.93599 15.1475 6.15199C14.8835 6.94399 14.7515 7.63999 14.7515 8.23999C14.7515 8.67999 14.7915 8.89999 14.8715 8.89999C14.9275 8.89999 15.0675 8.79599 15.2915 8.58799C15.7395 8.17199 16.0075 7.96399 16.0955 7.96399C16.1675 7.96399 16.2035 7.99599 16.2035 8.05999C16.2035 8.14799 16.1155 8.32399 15.9395 8.58799C15.4435 9.29999 15.0315 9.65599 14.7035 9.65599C14.5835 9.65599 14.4955 9.62799 14.4395 9.57199C14.3835 9.50799 14.3275 9.38399 14.2715 9.19999C14.2075 8.99999 14.1555 8.87199 14.1155 8.81599C14.0835 8.77599 14.0595 8.75999 14.0435 8.76799C14.0275 8.76799 13.9915 8.80799 13.9355 8.88799C13.8635 8.98399 13.7835 9.03199 13.6955 9.03199C13.5515 9.03199 13.4795 8.93599 13.4795 8.74399C13.4795 8.69599 13.5275 8.62799 13.6235 8.53999C13.7115 8.44399 13.7915 8.37999 13.8635 8.34799C13.8955 8.33999 13.9115 8.31199 13.9115 8.26399C13.9115 8.19199 13.9875 7.97599 14.1395 7.61599C14.3315 7.14399 14.5195 6.58399 14.7035 5.93599C14.8235 5.54399 14.9035 5.30799 14.9435 5.22799C14.9915 5.11599 15.0155 5.02799 15.0155 4.96399Z" fill="#52525B"/>
<path d="M16.8349 6.07999C16.8749 6.00799 16.9069 5.96399 16.9309 5.94799C16.9549 5.92399 17.0029 5.91599 17.0749 5.92399C17.1549 5.93199 17.1989 5.94799 17.2069 5.97199C17.2229 5.99599 17.2349 6.06799 17.2429 6.18799V6.24799C17.2429 6.42399 17.2149 6.65999 17.1589 6.95599C17.0229 7.68399 16.9549 8.17199 16.9549 8.41999C16.9549 8.55599 16.9589 8.66399 16.9669 8.74399C16.9989 9.21599 17.0629 9.45199 17.1589 9.45199C17.2549 9.45199 17.4349 9.27199 17.6989 8.91199C17.8749 8.67199 17.9949 8.52399 18.0589 8.46799C18.1229 8.40399 18.1909 8.37199 18.2629 8.37199C18.3749 8.37199 18.4389 8.38799 18.4549 8.41999C18.4629 8.42799 18.4669 8.44399 18.4669 8.46799C18.4669 8.56399 18.4269 8.71599 18.3469 8.92399C18.2749 9.12399 18.2029 9.26399 18.1309 9.34399C18.0349 9.47199 17.9549 9.61199 17.8909 9.76399C17.8349 9.90799 17.7189 10.02 17.5429 10.1C17.3909 10.172 17.2749 10.208 17.1949 10.208C17.1069 10.208 17.0029 10.144 16.8829 10.016C16.7229 9.83199 16.6189 9.68399 16.5709 9.57199C16.5309 9.45199 16.4829 9.19599 16.4269 8.80399C16.3869 8.49199 16.3669 8.24799 16.3669 8.07199C16.3669 7.95999 16.3749 7.87999 16.3909 7.83199C16.4229 7.71999 16.4389 7.60799 16.4389 7.49599V7.42399C16.4389 7.31999 16.4829 7.11599 16.5709 6.81199C16.6589 6.50799 16.7469 6.26399 16.8349 6.07999ZM18.2149 5.46799C18.1989 5.43599 18.1909 5.39199 18.1909 5.33599C18.1909 5.17599 18.3109 5.09599 18.5509 5.09599C18.5989 5.09599 18.6789 5.10399 18.7909 5.11999C18.8629 5.13599 18.9069 5.15599 18.9229 5.17999C18.9389 5.19599 18.9429 5.23999 18.9349 5.31199C18.9189 5.41599 18.8829 5.48399 18.8269 5.51599C18.7789 5.53999 18.6749 5.55199 18.5149 5.55199C18.3389 5.55199 18.2389 5.52399 18.2149 5.46799Z" fill="#52525B"/>
<path d="M19.7988 6.10399C19.8548 6.07999 19.9228 6.06799 20.0028 6.06799C20.1308 6.06799 20.2268 6.09199 20.2908 6.13999C20.6108 6.36399 20.7708 7.00799 20.7708 8.07199C20.7708 8.39999 20.7868 8.68399 20.8188 8.92399C20.8348 9.06799 20.8428 9.16399 20.8428 9.21199C20.8428 9.23599 20.8388 9.25999 20.8308 9.28399C20.8308 9.30799 20.8308 9.32399 20.8308 9.33199C20.8068 9.42799 20.7188 9.47599 20.5668 9.47599C20.5348 9.47599 20.5028 9.46799 20.4708 9.45199C20.4228 9.42799 20.3748 9.32799 20.3268 9.15199C20.2788 8.96799 20.2548 8.80399 20.2548 8.65999C20.2548 8.63599 20.2548 8.61199 20.2548 8.58799C20.2628 8.56399 20.2668 8.53999 20.2668 8.51599C20.2668 8.35599 20.2428 8.05999 20.1948 7.62799C20.1468 7.18799 20.1068 6.91999 20.0748 6.82399C20.0508 6.75999 20.0028 6.73199 19.9308 6.73999C19.8668 6.74799 19.7508 6.90799 19.5828 7.21999C19.4708 7.43599 19.3228 7.77599 19.1388 8.23999C18.9628 8.69599 18.8748 8.96399 18.8748 9.04399C18.8748 9.11599 18.8508 9.21599 18.8028 9.34399C18.7628 9.46399 18.7228 9.54399 18.6828 9.58399C18.6188 9.63199 18.5468 9.65599 18.4668 9.65599C18.3068 9.65599 18.2268 9.55599 18.2268 9.35599C18.2268 9.26799 18.2388 9.13999 18.2628 8.97199C18.2788 8.86799 18.2868 8.73999 18.2868 8.58799C18.2868 8.42799 18.2668 8.26399 18.2268 8.09599C18.1948 7.95199 18.1468 7.67199 18.0828 7.25599C18.0508 6.96799 18.0028 6.80399 17.9388 6.76399C17.8828 6.73199 17.8548 6.67599 17.8548 6.59599C17.8548 6.42799 17.9308 6.30799 18.0828 6.23599C18.2028 6.17999 18.2828 6.17199 18.3228 6.21199C18.3868 6.27599 18.4588 6.58799 18.5388 7.14799C18.5468 7.24399 18.5748 7.32399 18.6228 7.38799C18.6788 7.44399 18.7308 7.47199 18.7788 7.47199C18.8108 7.47199 18.8348 7.46399 18.8508 7.44799C18.9228 7.37599 19.0428 7.18399 19.2108 6.87199C19.4508 6.41599 19.6468 6.15999 19.7988 6.10399Z" fill="#52525B"/>
<path d="M23.3757 6.71599C23.3757 6.70799 23.3797 6.69599 23.3877 6.67999V6.65599C23.3877 6.62399 23.3717 6.60799 23.3397 6.60799C23.2197 6.60799 22.9637 6.81199 22.5717 7.21999C22.1877 7.61999 21.8997 7.98799 21.7077 8.32399C21.5397 8.63599 21.4557 8.81999 21.4557 8.87599C21.4557 8.91599 21.4757 8.95599 21.5157 8.99599C21.5717 9.05199 21.6277 9.07999 21.6837 9.07999C21.7717 9.07999 21.9197 9.00399 22.1277 8.85199C22.3917 8.67599 22.5517 8.57199 22.6077 8.53999C22.7277 8.47599 22.8037 8.37599 22.8357 8.23999C22.8837 8.07999 22.9557 7.90399 23.0517 7.71199C23.1477 7.53599 23.2557 7.20399 23.3757 6.71599ZM23.5557 5.94799C23.6357 5.89999 23.7317 5.87599 23.8437 5.87599C23.9877 5.87599 24.0797 5.91199 24.1197 5.98399C24.1597 6.06399 24.1797 6.15199 24.1797 6.24799C24.1797 6.43999 24.1277 6.61999 24.0237 6.78799C23.9037 6.99599 23.7837 7.28399 23.6637 7.65199C23.5197 8.08399 23.4477 8.43999 23.4477 8.71999C23.4477 9.02399 23.4837 9.21199 23.5557 9.28399C23.5957 9.32399 23.6437 9.34399 23.6997 9.34399C23.8117 9.34399 23.9717 9.24399 24.1797 9.04399C24.3157 8.91599 24.4117 8.85199 24.4677 8.85199C24.4997 8.85199 24.5597 8.88799 24.6477 8.95999C24.7037 9.01599 24.7317 9.06399 24.7317 9.10399C24.7317 9.17599 24.6437 9.28799 24.4677 9.43999C24.1557 9.70399 23.9037 9.83599 23.7117 9.83599C23.6237 9.83599 23.5357 9.81199 23.4477 9.76399C23.3517 9.71599 23.2557 9.63999 23.1597 9.53599C23.0717 9.42399 23.0197 9.32399 23.0037 9.23599C22.9717 9.09199 22.9477 9.00399 22.9317 8.97199C22.9157 8.93999 22.8837 8.92399 22.8357 8.92399C22.7557 8.92399 22.6477 8.99999 22.5117 9.15199C22.3597 9.31999 22.1797 9.45199 21.9717 9.54799C21.8037 9.62799 21.6557 9.66799 21.5277 9.66799C21.3917 9.66799 21.2557 9.60799 21.1197 9.48799C21.0237 9.39199 20.9757 9.23199 20.9757 9.00799C20.9757 8.73599 21.0157 8.52799 21.0957 8.38399C21.1757 8.23999 21.4037 7.94799 21.7797 7.50799C22.2677 6.93199 22.6597 6.54399 22.9557 6.34399C23.2517 6.12799 23.4517 5.99599 23.5557 5.94799Z" fill="#52525B"/>
<path d="M32.2196 1.50799C32.1476 1.41199 32.0676 1.36399 31.9796 1.36399C31.8676 1.36399 31.6956 1.47199 31.4636 1.68799C31.0956 2.05599 30.7836 2.46799 30.5276 2.92399C30.4556 3.05199 30.3156 3.27599 30.1076 3.59599C29.9556 3.81999 29.8796 3.97999 29.8796 4.07599C29.8796 4.08399 29.8796 4.09999 29.8796 4.12399C29.8876 4.14799 29.8916 4.16799 29.8916 4.18399C29.8996 4.33599 29.9556 4.45599 30.0596 4.54399C30.1556 4.63999 30.2116 4.70799 30.2276 4.74799C30.2516 4.79599 30.3356 4.77199 30.4796 4.67599C30.6556 4.55599 30.8716 4.36399 31.1276 4.09999C31.3836 3.82799 31.5556 3.61199 31.6436 3.45199C31.7316 3.30799 31.7996 3.21599 31.8476 3.17599C31.9036 3.12799 31.9796 3.10399 32.0756 3.10399C32.1076 3.10399 32.1276 3.10399 32.1356 3.10399C32.1436 3.09599 32.1476 3.08399 32.1476 3.06799C32.1556 3.04399 32.1556 3.01599 32.1476 2.98399C32.1396 2.96799 32.1356 2.93599 32.1356 2.88799C32.1356 2.77599 32.1516 2.68399 32.1836 2.61199C32.2476 2.38799 32.2836 2.18799 32.2916 2.01199C32.3076 1.85199 32.3156 1.76399 32.3156 1.74799C32.3156 1.65999 32.2836 1.57999 32.2196 1.50799ZM31.1636 1.36399C31.5236 1.03599 31.8356 0.871994 32.0996 0.871994C32.3636 0.871994 32.5796 1.03599 32.7476 1.36399C32.8276 1.52399 32.8676 1.69599 32.8676 1.87999C32.8676 2.03199 32.8516 2.19999 32.8196 2.38399C32.7556 2.78399 32.5676 3.15199 32.2556 3.48799C32.1036 3.65599 31.9996 3.82399 31.9436 3.99199C31.8796 4.16799 31.6356 4.44399 31.2116 4.81999C30.7636 5.21199 30.5396 5.44399 30.5396 5.51599C30.5396 5.60399 30.5836 5.76399 30.6716 5.99599C30.7756 6.25199 30.8556 6.50799 30.9116 6.76399C30.9436 6.89999 31.0476 7.21999 31.2236 7.72399C31.4076 8.22799 31.5156 8.54399 31.5476 8.67199C31.5876 8.85599 31.6596 9.03999 31.7636 9.22399C31.8756 9.39999 31.9716 9.50399 32.0516 9.53599H32.0876C32.1276 9.53599 32.2076 9.51599 32.3276 9.47599C32.4476 9.43599 32.5316 9.41599 32.5796 9.41599C32.6436 9.41599 32.6756 9.44799 32.6756 9.51199C32.6756 9.62399 32.5876 9.74399 32.4116 9.87199C32.2436 9.99199 32.0676 10.052 31.8836 10.052C31.7876 10.052 31.6956 10.028 31.6076 9.97999C31.4876 9.90799 31.3716 9.77599 31.2596 9.58399C31.1476 9.38399 31.0756 9.19599 31.0436 9.01999C31.0116 8.81999 30.9596 8.60799 30.8876 8.38399C30.8156 8.18399 30.7396 7.97999 30.6596 7.77199C30.5876 7.55599 30.5156 7.34399 30.4436 7.13599C30.2996 6.73599 30.1956 6.45999 30.1316 6.30799C30.0676 6.15599 30.0036 6.07999 29.9396 6.07999C29.8676 6.07999 29.7836 6.19199 29.6876 6.41599C29.5916 6.63199 29.4356 7.04399 29.2196 7.65199C29.1556 7.81999 29.0956 7.95999 29.0396 8.07199C28.9916 8.18399 28.9236 8.31999 28.8356 8.47999C28.7476 8.63199 28.6636 8.79199 28.5836 8.95999C28.4236 9.29599 28.2996 9.51599 28.2116 9.61999C28.1316 9.72399 28.0276 9.77599 27.8996 9.77599C27.7316 9.77599 27.6476 9.65599 27.6476 9.41599C27.6476 9.20799 27.7036 8.91599 27.8156 8.53999C27.9356 8.16399 28.0836 7.73999 28.2596 7.26799C28.4356 6.79599 28.5556 6.44399 28.6196 6.21199C28.6756 6.01999 28.8116 5.65999 29.0276 5.13199C29.2516 4.60399 29.3876 4.27199 29.4356 4.13599C29.5476 3.79199 29.8036 3.29999 30.2036 2.65999C30.6036 2.01199 30.9236 1.57999 31.1636 1.36399Z" fill="#52525B"/>
<path d="M34.8249 6.71599C34.8249 6.70799 34.8289 6.69599 34.8369 6.67999V6.65599C34.8369 6.62399 34.8209 6.60799 34.7889 6.60799C34.6689 6.60799 34.4129 6.81199 34.0209 7.21999C33.6369 7.61999 33.3489 7.98799 33.1569 8.32399C32.9889 8.63599 32.9049 8.81999 32.9049 8.87599C32.9049 8.91599 32.9249 8.95599 32.9649 8.99599C33.0209 9.05199 33.0769 9.07999 33.1329 9.07999C33.2209 9.07999 33.3689 9.00399 33.5769 8.85199C33.8409 8.67599 34.0009 8.57199 34.0569 8.53999C34.1769 8.47599 34.2529 8.37599 34.2849 8.23999C34.3329 8.07999 34.4049 7.90399 34.5009 7.71199C34.5969 7.53599 34.7049 7.20399 34.8249 6.71599ZM35.0049 5.94799C35.0849 5.89999 35.1809 5.87599 35.2929 5.87599C35.4369 5.87599 35.5289 5.91199 35.5689 5.98399C35.6089 6.06399 35.6289 6.15199 35.6289 6.24799C35.6289 6.43999 35.5769 6.61999 35.4729 6.78799C35.3529 6.99599 35.2329 7.28399 35.1129 7.65199C34.9689 8.08399 34.8969 8.43999 34.8969 8.71999C34.8969 9.02399 34.9329 9.21199 35.0049 9.28399C35.0449 9.32399 35.0929 9.34399 35.1489 9.34399C35.2609 9.34399 35.4209 9.24399 35.6289 9.04399C35.7649 8.91599 35.8609 8.85199 35.9169 8.85199C35.9489 8.85199 36.0089 8.88799 36.0969 8.95999C36.1529 9.01599 36.1809 9.06399 36.1809 9.10399C36.1809 9.17599 36.0929 9.28799 35.9169 9.43999C35.6049 9.70399 35.3529 9.83599 35.1609 9.83599C35.0729 9.83599 34.9849 9.81199 34.8969 9.76399C34.8009 9.71599 34.7049 9.63999 34.6089 9.53599C34.5209 9.42399 34.4689 9.32399 34.4529 9.23599C34.4209 9.09199 34.3969 9.00399 34.3809 8.97199C34.3649 8.93999 34.3329 8.92399 34.2849 8.92399C34.2049 8.92399 34.0969 8.99999 33.9609 9.15199C33.8089 9.31999 33.6289 9.45199 33.4209 9.54799C33.2529 9.62799 33.1049 9.66799 32.9769 9.66799C32.8409 9.66799 32.7049 9.60799 32.5689 9.48799C32.4729 9.39199 32.4249 9.23199 32.4249 9.00799C32.4249 8.73599 32.4649 8.52799 32.5449 8.38399C32.6249 8.23999 32.8529 7.94799 33.2289 7.50799C33.7169 6.93199 34.1089 6.54399 34.4049 6.34399C34.7009 6.12799 34.9009 5.99599 35.0049 5.94799Z" fill="#52525B"/>
<path d="M39.0968 10.808C39.0408 9.91199 38.9648 9.46399 38.8688 9.46399C38.8048 9.46399 38.6608 9.60799 38.4368 9.89599C38.2128 10.176 38.0528 10.416 37.9568 10.616C37.7648 11.016 37.6688 11.412 37.6688 11.804C37.6688 12.14 37.7328 12.488 37.8608 12.848C37.9808 13.2 38.0768 13.376 38.1488 13.376C38.2208 13.376 38.3288 13.256 38.4728 13.016C38.6488 12.752 38.7408 12.568 38.7488 12.464C38.7888 12.304 38.8368 12.156 38.8928 12.02C39.0288 11.716 39.0968 11.372 39.0968 10.988V10.808ZM38.7728 7.05199C38.7728 6.99599 38.7728 6.93199 38.7728 6.85999C38.7808 6.78799 38.7848 6.74399 38.7848 6.72799C38.7848 6.59999 38.7528 6.53599 38.6888 6.53599C38.6248 6.53599 38.3968 6.70799 38.0048 7.05199C37.6208 7.38799 37.3368 7.66799 37.1528 7.89199C37.0408 8.02799 36.9408 8.20399 36.8528 8.41999C36.7648 8.62799 36.7208 8.79199 36.7208 8.91199C36.7208 8.95199 36.7248 8.97999 36.7328 8.99599C36.8208 9.13199 36.9568 9.19999 37.1408 9.19999C37.1488 9.19999 37.1608 9.19999 37.1768 9.19999C37.1928 9.19199 37.2048 9.18799 37.2128 9.18799C37.4128 9.14799 37.6968 8.94799 38.0648 8.58799C38.4408 8.21999 38.6568 7.93599 38.7128 7.73599C38.7368 7.62399 38.7568 7.39599 38.7728 7.05199ZM38.6528 5.99599C38.7488 5.96399 38.8368 5.94799 38.9168 5.94799C39.0208 5.94799 39.0888 5.97599 39.1208 6.03199C39.1448 6.07199 39.2088 6.20799 39.3128 6.43999C39.3848 6.61599 39.4208 6.77199 39.4208 6.90799C39.4208 7.03599 39.3728 7.31199 39.2768 7.73599C39.2208 7.98399 39.1928 8.12799 39.1928 8.16799C39.1928 8.19999 39.1968 8.21999 39.2048 8.22799C39.2128 8.23599 39.2208 8.23999 39.2288 8.23999C39.2928 8.23999 39.4048 8.16799 39.5648 8.02399C39.8528 7.76799 40.0808 7.63999 40.2488 7.63999C40.3048 7.63999 40.3528 7.65999 40.3928 7.69999C40.4328 7.73199 40.4528 7.77999 40.4528 7.84399C40.4528 7.91599 40.2848 8.11999 39.9488 8.45599C39.7248 8.67199 39.5848 8.81599 39.5288 8.88799C39.4728 8.95199 39.4448 9.00799 39.4448 9.05599C39.4448 9.09599 39.4488 9.12799 39.4568 9.15199C39.5368 9.60799 39.5968 10.12 39.6368 10.688C39.6528 10.976 39.6608 11.16 39.6608 11.24C39.6608 11.616 39.5328 12.04 39.2768 12.512C39.1088 12.808 39.0248 12.992 39.0248 13.064C39.0248 13.136 38.9728 13.264 38.8688 13.448C38.7728 13.632 38.6848 13.76 38.6048 13.832C38.5088 13.928 38.4208 13.984 38.3408 14C38.3248 14.008 38.2968 14.012 38.2568 14.012C38.0808 14.012 37.9048 13.876 37.7288 13.604C37.5528 13.34 37.4088 12.992 37.2968 12.56C37.2488 12.36 37.2248 12.156 37.2248 11.948C37.2248 11.804 37.2288 11.684 37.2368 11.588C37.2528 11.236 37.2928 10.96 37.3568 10.76C37.4208 10.552 37.5408 10.316 37.7168 10.052C37.8608 9.81999 37.9328 9.68799 37.9328 9.65599C37.9328 9.63999 37.9128 9.61199 37.8728 9.57199C37.8568 9.55599 37.8288 9.54799 37.7888 9.54799C37.7408 9.54799 37.6368 9.57199 37.4768 9.61999C37.3168 9.67599 37.1608 9.70399 37.0088 9.70399C36.6648 9.70399 36.4248 9.55999 36.2888 9.27199C36.2328 9.16799 36.2048 9.05599 36.2048 8.93599C36.2048 8.75199 36.3088 8.46799 36.5168 8.08399C36.6528 7.83599 36.7848 7.63999 36.9128 7.49599C37.0408 7.34399 37.3168 7.06399 37.7408 6.65599C38.0448 6.35999 38.2328 6.18799 38.3048 6.13999C38.3848 6.08399 38.5008 6.03599 38.6528 5.99599Z" fill="#52525B"/>
<path d="M42.3366 6.71599C42.3366 6.70799 42.3406 6.69599 42.3486 6.67999V6.65599C42.3486 6.62399 42.3326 6.60799 42.3006 6.60799C42.1806 6.60799 41.9246 6.81199 41.5326 7.21999C41.1486 7.61999 40.8606 7.98799 40.6686 8.32399C40.5006 8.63599 40.4166 8.81999 40.4166 8.87599C40.4166 8.91599 40.4366 8.95599 40.4766 8.99599C40.5326 9.05199 40.5886 9.07999 40.6446 9.07999C40.7326 9.07999 40.8806 9.00399 41.0886 8.85199C41.3526 8.67599 41.5126 8.57199 41.5686 8.53999C41.6886 8.47599 41.7646 8.37599 41.7966 8.23999C41.8446 8.07999 41.9166 7.90399 42.0126 7.71199C42.1086 7.53599 42.2166 7.20399 42.3366 6.71599ZM42.5166 5.94799C42.5966 5.89999 42.6926 5.87599 42.8046 5.87599C42.9486 5.87599 43.0406 5.91199 43.0806 5.98399C43.1206 6.06399 43.1406 6.15199 43.1406 6.24799C43.1406 6.43999 43.0886 6.61999 42.9846 6.78799C42.8646 6.99599 42.7446 7.28399 42.6246 7.65199C42.4806 8.08399 42.4086 8.43999 42.4086 8.71999C42.4086 9.02399 42.4446 9.21199 42.5166 9.28399C42.5566 9.32399 42.6046 9.34399 42.6606 9.34399C42.7726 9.34399 42.9326 9.24399 43.1406 9.04399C43.2766 8.91599 43.3726 8.85199 43.4286 8.85199C43.4606 8.85199 43.5206 8.88799 43.6086 8.95999C43.6646 9.01599 43.6926 9.06399 43.6926 9.10399C43.6926 9.17599 43.6046 9.28799 43.4286 9.43999C43.1166 9.70399 42.8646 9.83599 42.6726 9.83599C42.5846 9.83599 42.4966 9.81199 42.4086 9.76399C42.3126 9.71599 42.2166 9.63999 42.1206 9.53599C42.0326 9.42399 41.9806 9.32399 41.9646 9.23599C41.9326 9.09199 41.9086 9.00399 41.8926 8.97199C41.8766 8.93999 41.8446 8.92399 41.7966 8.92399C41.7166 8.92399 41.6086 8.99999 41.4726 9.15199C41.3206 9.31999 41.1406 9.45199 40.9326 9.54799C40.7646 9.62799 40.6166 9.66799 40.4886 9.66799C40.3526 9.66799 40.2166 9.60799 40.0806 9.48799C39.9846 9.39199 39.9366 9.23199 39.9366 9.00799C39.9366 8.73599 39.9766 8.52799 40.0566 8.38399C40.1366 8.23999 40.3646 7.94799 40.7406 7.50799C41.2286 6.93199 41.6206 6.54399 41.9166 6.34399C42.2126 6.12799 42.4126 5.99599 42.5166 5.94799Z" fill="#52525B"/>
<path d="M45.2285 6.10399C45.2845 6.07999 45.3525 6.06799 45.4325 6.06799C45.5605 6.06799 45.6565 6.09199 45.7205 6.13999C46.0405 6.36399 46.2005 7.00799 46.2005 8.07199C46.2005 8.39999 46.2165 8.68399 46.2485 8.92399C46.2645 9.06799 46.2725 9.16399 46.2725 9.21199C46.2725 9.23599 46.2685 9.25999 46.2605 9.28399C46.2605 9.30799 46.2605 9.32399 46.2605 9.33199C46.2365 9.42799 46.1485 9.47599 45.9965 9.47599C45.9645 9.47599 45.9325 9.46799 45.9005 9.45199C45.8525 9.42799 45.8045 9.32799 45.7565 9.15199C45.7085 8.96799 45.6845 8.80399 45.6845 8.65999C45.6845 8.63599 45.6845 8.61199 45.6845 8.58799C45.6925 8.56399 45.6965 8.53999 45.6965 8.51599C45.6965 8.35599 45.6725 8.05999 45.6245 7.62799C45.5765 7.18799 45.5365 6.91999 45.5045 6.82399C45.4805 6.75999 45.4325 6.73199 45.3605 6.73999C45.2965 6.74799 45.1805 6.90799 45.0125 7.21999C44.9005 7.43599 44.7525 7.77599 44.5685 8.23999C44.3925 8.69599 44.3045 8.96399 44.3045 9.04399C44.3045 9.11599 44.2805 9.21599 44.2325 9.34399C44.1925 9.46399 44.1525 9.54399 44.1125 9.58399C44.0485 9.63199 43.9765 9.65599 43.8965 9.65599C43.7365 9.65599 43.6565 9.55599 43.6565 9.35599C43.6565 9.26799 43.6685 9.13999 43.6925 8.97199C43.7085 8.86799 43.7165 8.73999 43.7165 8.58799C43.7165 8.42799 43.6965 8.26399 43.6565 8.09599C43.6245 7.95199 43.5765 7.67199 43.5125 7.25599C43.4805 6.96799 43.4325 6.80399 43.3685 6.76399C43.3125 6.73199 43.2845 6.67599 43.2845 6.59599C43.2845 6.42799 43.3605 6.30799 43.5125 6.23599C43.6325 6.17999 43.7125 6.17199 43.7525 6.21199C43.8165 6.27599 43.8885 6.58799 43.9685 7.14799C43.9765 7.24399 44.0045 7.32399 44.0525 7.38799C44.1085 7.44399 44.1605 7.47199 44.2085 7.47199C44.2405 7.47199 44.2645 7.46399 44.2805 7.44799C44.3525 7.37599 44.4725 7.18399 44.6405 6.87199C44.8805 6.41599 45.0765 6.15999 45.2285 6.10399Z" fill="#52525B"/>
<path d="M47.2334 6.07999C47.2734 6.00799 47.3054 5.96399 47.3294 5.94799C47.3534 5.92399 47.4014 5.91599 47.4734 5.92399C47.5534 5.93199 47.5974 5.94799 47.6054 5.97199C47.6214 5.99599 47.6334 6.06799 47.6414 6.18799V6.24799C47.6414 6.42399 47.6134 6.65999 47.5574 6.95599C47.4214 7.68399 47.3534 8.17199 47.3534 8.41999C47.3534 8.55599 47.3574 8.66399 47.3654 8.74399C47.3974 9.21599 47.4614 9.45199 47.5574 9.45199C47.6534 9.45199 47.8334 9.27199 48.0974 8.91199C48.2734 8.67199 48.3934 8.52399 48.4574 8.46799C48.5214 8.40399 48.5894 8.37199 48.6614 8.37199C48.7734 8.37199 48.8374 8.38799 48.8534 8.41999C48.8614 8.42799 48.8654 8.44399 48.8654 8.46799C48.8654 8.56399 48.8254 8.71599 48.7454 8.92399C48.6734 9.12399 48.6014 9.26399 48.5294 9.34399C48.4334 9.47199 48.3534 9.61199 48.2894 9.76399C48.2334 9.90799 48.1174 10.02 47.9414 10.1C47.7894 10.172 47.6734 10.208 47.5934 10.208C47.5054 10.208 47.4014 10.144 47.2814 10.016C47.1214 9.83199 47.0174 9.68399 46.9694 9.57199C46.9294 9.45199 46.8814 9.19599 46.8254 8.80399C46.7854 8.49199 46.7654 8.24799 46.7654 8.07199C46.7654 7.95999 46.7734 7.87999 46.7894 7.83199C46.8214 7.71999 46.8374 7.60799 46.8374 7.49599V7.42399C46.8374 7.31999 46.8814 7.11599 46.9694 6.81199C47.0574 6.50799 47.1454 6.26399 47.2334 6.07999ZM48.6134 5.46799C48.5974 5.43599 48.5894 5.39199 48.5894 5.33599C48.5894 5.17599 48.7094 5.09599 48.9494 5.09599C48.9974 5.09599 49.0774 5.10399 49.1894 5.11999C49.2614 5.13599 49.3054 5.15599 49.3214 5.17999C49.3374 5.19599 49.3414 5.23999 49.3334 5.31199C49.3174 5.41599 49.2814 5.48399 49.2254 5.51599C49.1774 5.53999 49.0734 5.55199 48.9134 5.55199C48.7374 5.55199 48.6374 5.52399 48.6134 5.46799Z" fill="#52525B"/>
<path d="M49.6093 4.96399C49.6093 4.92399 49.6413 4.79199 49.7053 4.56799C49.7773 4.34399 49.8133 4.21599 49.8133 4.18399C49.8133 4.13599 49.8333 4.07199 49.8733 3.99199C49.8973 3.90399 49.9613 3.85999 50.0653 3.85999C50.1293 3.85999 50.1813 3.87999 50.2213 3.91999C50.2613 3.95999 50.2813 4.03599 50.2813 4.14799C50.2813 4.29199 50.2453 4.47199 50.1733 4.68799C50.1253 4.81599 50.1013 4.90399 50.1013 4.95199C50.1013 5.00799 50.1413 5.03599 50.2213 5.03599C50.2773 5.03599 50.3693 5.00799 50.4973 4.95199C50.6253 4.89599 50.6893 4.85599 50.6893 4.83199C50.6893 4.81599 50.7453 4.79199 50.8573 4.75999C50.9213 4.75199 51.0893 4.68799 51.3613 4.56799C51.5293 4.48799 51.6613 4.44799 51.7573 4.44799C51.7973 4.44799 51.8293 4.45199 51.8533 4.45999C51.9493 4.49199 51.9973 4.55599 51.9973 4.65199C51.9973 4.71599 51.9733 4.76799 51.9253 4.80799C51.8853 4.84799 51.7733 4.91999 51.5893 5.02399C51.3253 5.15999 51.1013 5.25999 50.9173 5.32399C50.8133 5.35599 50.7173 5.39599 50.6293 5.44399C50.5493 5.48399 50.4493 5.51999 50.3293 5.55199C50.1453 5.59999 50.0173 5.65999 49.9453 5.73199C49.8813 5.79599 49.8133 5.93599 49.7413 6.15199C49.4773 6.94399 49.3453 7.63999 49.3453 8.23999C49.3453 8.67999 49.3853 8.89999 49.4653 8.89999C49.5213 8.89999 49.6613 8.79599 49.8853 8.58799C50.3333 8.17199 50.6013 7.96399 50.6893 7.96399C50.7613 7.96399 50.7973 7.99599 50.7973 8.05999C50.7973 8.14799 50.7093 8.32399 50.5333 8.58799C50.0373 9.29999 49.6253 9.65599 49.2973 9.65599C49.1773 9.65599 49.0893 9.62799 49.0333 9.57199C48.9773 9.50799 48.9213 9.38399 48.8653 9.19999C48.8013 8.99999 48.7493 8.87199 48.7093 8.81599C48.6773 8.77599 48.6533 8.75999 48.6373 8.76799C48.6213 8.76799 48.5853 8.80799 48.5293 8.88799C48.4573 8.98399 48.3773 9.03199 48.2893 9.03199C48.1453 9.03199 48.0733 8.93599 48.0733 8.74399C48.0733 8.69599 48.1213 8.62799 48.2173 8.53999C48.3053 8.44399 48.3853 8.37999 48.4573 8.34799C48.4893 8.33999 48.5053 8.31199 48.5053 8.26399C48.5053 8.19199 48.5813 7.97599 48.7333 7.61599C48.9253 7.14399 49.1133 6.58399 49.2973 5.93599C49.4173 5.54399 49.4973 5.30799 49.5373 5.22799C49.5853 5.11599 49.6093 5.02799 49.6093 4.96399Z" fill="#52525B"/>
</svg>
