<svg width="13" height="26" viewBox="0 0 13 26" fill="none" xmlns="http://www.w3.org/2000/svg">
<g clip-path="url(#clip0_35_2198)">
<path d="M8.71982 23.6359C8.04014 23.5773 7.19639 23.7648 6.62217 24.1164C6.37607 24.257 6.34092 24.4797 6.55186 24.6672C7.0792 25.1476 7.88779 25.5109 8.5792 25.5578C9.29404 25.6515 10.1495 25.4289 10.7238 24.9953C10.9113 24.8664 10.923 24.6672 10.7472 24.5031C10.2315 24.0226 9.42295 23.6828 8.71982 23.6359ZM11.1808 19.675C10.8058 20.2492 10.5949 21.0929 10.6183 21.7726C10.6652 22.4875 10.9933 23.3078 11.4503 23.8117C11.6027 23.9875 11.7902 23.9875 11.9425 23.8C12.3996 23.2609 12.6456 22.4054 12.5753 21.6789C12.5285 20.9992 12.1886 20.1906 11.7199 19.6515C11.5441 19.4406 11.3331 19.4523 11.1808 19.675ZM5.41514 20.4601C4.77061 20.2258 3.8917 20.2023 3.23545 20.4015C2.97764 20.4836 2.90732 20.6828 3.04795 20.9172C3.43467 21.5148 4.12607 22.0656 4.77061 22.3C5.42686 22.5695 6.31748 22.5695 6.98545 22.2883C7.20811 22.2062 7.2667 22.0304 7.13779 21.8195C6.76279 21.2218 6.07139 20.6828 5.41514 20.4601ZM8.79014 17.2726C8.28623 17.7297 7.85264 18.4797 7.72373 19.1476C7.57139 19.8508 7.67686 20.7297 7.99326 21.3273C8.08701 21.55 8.27451 21.5851 8.47373 21.4445C9.03623 21.0343 9.49326 20.2726 9.61045 19.5461C9.75107 18.8781 9.63389 17.9992 9.31748 17.3664C9.21201 17.1086 8.98936 17.0734 8.79014 17.2726ZM0.481539 15.925C0.575289 16.6047 0.985445 17.4015 1.48936 17.8937C1.98154 18.4093 2.79014 18.7609 3.5167 18.7843C3.75107 18.7961 3.87998 18.6437 3.84482 18.4093C3.72764 17.6945 3.31748 16.9328 2.81357 16.4758C2.30967 15.9953 1.53623 15.6203 0.856539 15.5383C0.575289 15.5031 0.434664 15.6554 0.481539 15.925ZM7.19639 14.9172C6.55186 15.1398 5.86045 15.6554 5.46201 16.2062C5.04014 16.757 4.79404 17.589 4.81748 18.3156C4.84092 18.5383 4.99326 18.6554 5.22764 18.6203C5.93076 18.4562 6.66904 17.9523 7.04404 17.3429C7.43076 16.7453 7.68857 15.9133 7.6417 15.2218C7.6417 14.9406 7.46592 14.8234 7.19639 14.9172ZM5.23936 12.175C4.68857 12.6203 4.23154 13.3703 4.09092 14.0617C4.05576 14.2726 4.17295 14.4367 4.39561 14.4484C5.12217 14.4718 5.9542 14.1554 6.48154 13.6867C7.00889 13.2297 7.47764 12.4679 7.62998 11.7883C7.66514 11.5304 7.52451 11.3547 7.2667 11.3664C6.56357 11.425 5.75498 11.7297 5.23936 12.175ZM0.493258 10.6398C0.422945 11.3312 0.610445 12.1867 0.985445 12.7961C1.33701 13.4289 2.02842 13.9797 2.70811 14.1672C2.91904 14.2375 3.10654 14.1203 3.12998 13.8859C3.20029 13.2179 3.00107 12.3625 2.62607 11.7531C2.25107 11.1672 1.58311 10.6047 0.962008 10.3586C0.715914 10.2531 0.516695 10.3586 0.493258 10.6398ZM5.88389 8.23742C5.21592 8.4718 4.52451 8.99914 4.14951 9.60852C4.02061 9.79602 4.09092 9.99523 4.30186 10.089C4.96982 10.3586 5.84873 10.3586 6.5167 10.089C7.19639 9.83117 7.89951 9.26867 8.23936 8.67102C8.37998 8.46008 8.30967 8.26086 8.05186 8.17883C7.38389 7.99133 6.5167 8.00305 5.88389 8.23742ZM1.94639 5.16711C1.6417 5.81164 1.52451 6.67883 1.65342 7.35852C1.78232 8.07336 2.23936 8.82336 2.82529 9.24523C3.00107 9.38586 3.18857 9.32727 3.30576 9.11633C3.61045 8.50695 3.71592 7.63977 3.56357 6.94836C3.42295 6.26867 2.97764 5.51867 2.48545 5.04992C2.29795 4.88586 2.07529 4.93273 1.94639 5.16711ZM8.00498 4.86242C7.31357 4.99133 6.55186 5.43664 6.11826 5.9757C5.97764 6.13977 6.01279 6.33898 6.20029 6.46789C6.82139 6.83117 7.70029 6.94836 8.3917 6.76086C9.08311 6.60852 9.84482 6.15148 10.2901 5.63586C10.4659 5.42492 10.419 5.21398 10.1729 5.10852C9.55186 4.82727 8.69639 4.7218 8.00498 4.86242ZM4.54795 1.25305C4.14951 1.8507 3.91514 2.70617 3.96201 3.38586C3.97373 4.1007 4.32529 4.9093 4.84092 5.42492C5.0167 5.58898 5.21592 5.56555 5.34482 5.37805C5.73154 4.78039 5.96592 3.92492 5.90732 3.24523C5.86045 2.57727 5.54404 1.78039 5.09873 1.22961C4.91123 1.01868 4.70029 1.04211 4.54795 1.25305ZM10.5949 0.0694565C9.91514 0.174925 9.1417 0.585081 8.64951 1.06555C8.15732 1.54602 7.77061 2.35461 7.68857 3.0343C7.66514 3.26867 7.79404 3.4093 8.02842 3.39758C8.74326 3.36242 9.54014 2.98742 10.0323 2.43664C10.5011 1.94445 10.8878 1.1593 10.9933 0.456175C11.0167 0.186644 10.8761 0.0343002 10.5949 0.0694565Z" fill="black" fill-opacity="0.85"/>
</g>
<defs>
<clipPath id="clip0_35_2198">
<rect width="12.4631" height="25.592" fill="white" transform="translate(0.472656 0.0644531)"/>
</clipPath>
</defs>
</svg>
